<svg xmlns="http://www.w3.org/2000/svg" viewBox="0 0 48.535 42.665"><defs><style>.a{fill:#37b04c;}.b{fill:#31a445;}.c{fill:#ececf1;}.d{fill:#d7e9fd;}.e{fill:#4a696f;}.f{fill:#3e5959;}.g{fill:#293939;}.h{fill:#d3d3d8;}.i{fill:#384949;}.j{fill:#e2e2e7;}</style></defs><g transform="translate(-286 -281.063)"><path class="a" d="M167,62.328l-5.688,19.91a1.479,1.479,0,0,1-1.195,1.024l-11.87,1.308L134.876,86.05h-.171l-3.783-25.542h34.71a1.4,1.4,0,0,1,1.138.569A1.492,1.492,0,0,1,167,62.328Zm0,0" transform="translate(167.488 226.243)"/><path class="b" d="M332.4,62.328l-5.689,19.91a1.478,1.478,0,0,1-1.195,1.024l-11.87,1.308V60.507h17.388a1.4,1.4,0,0,1,1.138.569,1.492,1.492,0,0,1,.227,1.251Zm0,0" transform="translate(2.084 226.244)"/><path class="c" d="M266.99,137.937l-5.489,5.49-3.043,3.043a1.374,1.374,0,0,1-1.991,0,1.375,1.375,0,0,1,0-1.991L265,135.946a1.408,1.408,0,0,1,1.991,1.991Zm0,0" transform="translate(54.232 158.343)"/><path class="c" d="M258.883,136.941a1.422,1.422,0,1,1-1.422-1.422A1.422,1.422,0,0,1,258.883,136.941Zm0,0" transform="translate(54.232 158.343)"/><path class="d" d="M348.9,226.957a1.422,1.422,0,1,1-1.422-1.422A1.422,1.422,0,0,1,348.9,226.957Zm0,0" transform="translate(-27.247 76.86)"/><path class="e" d="M42.854,36.054a1.408,1.408,0,0,1-1.422,1.422H19.578a4.251,4.251,0,0,1-4.21-3.555L10.477,4.539A1.438,1.438,0,0,0,9.054,3.345H1.422A1.408,1.408,0,0,1,0,1.923,1.408,1.408,0,0,1,1.422.5H9.054a4.252,4.252,0,0,1,4.21,3.555l4.892,29.382a1.438,1.438,0,0,0,1.422,1.195H41.432A1.408,1.408,0,0,1,42.854,36.054Zm0,0" transform="translate(286 280.562)"/><path class="d" d="M319.138,137.938l-5.489,5.49v-3.982l3.5-3.5a1.408,1.408,0,1,1,1.991,1.991Zm0,0" transform="translate(2.084 158.342)"/><path class="f" d="M326.77,361.977a1.408,1.408,0,0,1-1.422,1.422h-11.7v-2.844h11.7A1.408,1.408,0,0,1,326.77,361.977Zm0,0" transform="translate(2.084 -45.361)"/><path class="g" d="M366.322,369.087a4.267,4.267,0,1,1,4.267-4.267A4.272,4.272,0,0,1,366.322,369.087Zm0,0" transform="translate(-41.734 -45.36)"/><path class="h" d="M393.481,393.4a1.422,1.422,0,1,1,1.422-1.422A1.423,1.423,0,0,1,393.481,393.4Zm0,0" transform="translate(-68.894 -72.52)"/><path class="i" d="M185.294,369.087a4.267,4.267,0,1,1,4.267-4.267A4.271,4.271,0,0,1,185.294,369.087Zm0,0" transform="translate(122.133 -45.36)"/><path class="j" d="M212.453,393.4a1.422,1.422,0,1,1,1.422-1.422A1.423,1.423,0,0,1,212.453,393.4Zm0,0" transform="translate(94.974 -72.52)"/></g></svg>